#!OML:ASF I:\Actors\actors\Patient Classification 2\Patient 1\Session 1\actor1.ASF
:FULLY-SPECIFIED
:DEGREES
897
root -1.08962 18.571 6.17735 -2.44287 -4.02825 -4.13792
lowerback 7.8988 0.0731416 2.89815
upperback 0.409364 0.434833 1.90084
thorax -4.00128 0.178671 0.291876
lowerneck -11.7032 -0.888933 -0.206475
upperneck 15.4316 -2.14997 5.59391
head 6.70174 -0.577149 1.63401
rclavicle 7.27428e-015 -9.34288e-015
rhumerus -46.2416 -1.59436 -87.4715
rradius 43.5104
rwrist 11.4592
rhand -9.10688 -25.943
rfingers 7.12502
rthumb 16.8436 -55.2325
lclavicle 7.27428e-015 -9.34288e-015
lhumerus -40.1538 4.79172 89.8715
lradius 37.8681
lwrist -3.23428
lhand -3.04393 -23.9414
lfingers 7.12502
lthumb 22.6718 4.74686
rfemur 12.7438 6.04511 19.9222
rtibia -2.06736e-014
rfoot -19.1956 -11.4399
rtoes -9.65658
lfemur -1.03243 -2.83421 -9.47422
ltibia 24.7368
lfoot -22.9589 11.1927
ltoes -57.127
898
root -1.0867 18.5703 6.17422 -2.43105 -4.09174 -4.11926
lowerback 7.84172 0.0881862 2.87446
upperback 0.432059 0.44914 1.89408
thorax -3.94554 0.186825 0.296608
lowerneck -11.8655 -0.90052 -0.22266
upperneck 15.6194 -2.17658 5.59999
head 6.79151 -0.583985 1.63723
rclavicle -2.94139e-015 3.37934e-015
rhumerus -46.3561 -2.03646 -87.0209
rradius 42.654
rwrist 12.8862
rhand -8.85245 -25.4055
rfingers 7.12502
rthumb 17.0885 -54.674
lclavicle -2.94139e-015 3.37934e-015
lhumerus -40.5428 6.18475 89.016
lradius 36.8007
lwrist -4.73036
lhand -3.05151 -23.9287
lfingers 7.12502
lthumb 22.6645 4.76048
rfemur 12.7129 6.11032 19.8984
rtibia 5.08889e-014
rfoot -19.1584 -11.4508
rtoes -9.75779
lfemur -1.02523 -2.81322 -9.50463
ltibia 24.7246
lfoot -23.0003 11.1677
ltoes -56.9996
899
root -1.08359 18.57 6.16822 -2.40095 -4.14608 -4.16368
lowerback 7.84326 0.0932936 2.93102
upperback 0.411969 0.461718 1.89481
thorax -3.9667 0.191709 0.264287
lowerneck -12.0305 -0.928119 -0.306518
upperneck 15.8798 -2.23066 5.68738
head 6.90783 -0.599546 1.67587
rclavicle 1.44926e-014 -7.35503e-015
rhumerus -46.5062 -2.44432 -86.5938
rradius 41.8327
rwrist 13.8654
rhand -8.81547 -25.4031
rfingers 7.12502
rthumb 17.1241 -54.6685
lclavicle 1.44926e-014 -7.35503e-015
lhumerus -40.9908 7.55668 88.0857
lradius 35.8462
lwrist -6.30836
lhand -3.50707 -23.9251
lfingers 7.12502
lthumb 22.2272 4.81677
rfemur 12.6531 6.16413 19.9325
rtibia 2.70347e-014
rfoot -19.1711 -11.3501
rtoes -9.13294
lfemur -1.06139 -2.7969 -9.46089
ltibia 24.7249
lfoot -23.0016 11.1876
ltoes -56.9956
900
root -1.07923 18.5717 6.16156 -2.35216 -4.17201 -4.20889
lowerback 7.83054 0.0886173 3.01895
upperback 0.386152 0.463072 1.88192
thorax -3.98564 0.190318 0.201542
lowerneck -12.0476 -0.916732 -0.325579
upperneck 15.9777 -2.22684 5.74137
head 6.94318 -0.591922 1.69757
rclavicle -1.82199e-014 -3.43897e-014
rhumerus -46.648 -2.83201 -86.1681
rradius 41.0756
rwrist 14.7736
rhand -8.08921 -26.3464
rfingers 7.12502
rthumb 17.823 -55.5496
lclavicle -1.82199e-014 -3.43897e-014
lhumerus -41.4917 8.6884 87.1744
lradius 35.1446
lwrist -7.70995
lhand -3.60454 -23.9486
lfingers 7.12502
lthumb 22.1337 4.80447
rfemur 12.5834 6.19079 19.957
rtibia -1.90833e-014
rfoot -19.2079 -11.2348
rtoes -8.41746
lfemur -1.13636 -2.78616 -9.4165
ltibia 24.7306
lfoot -22.9837 11.2049
ltoes -57.0028
901
root -1.07593 18.5744 6.15764 -2.3074 -4.19984 -4.20561
lowerback 7.75744 0.0880782 3.03457
upperback 0.381908 0.459334 1.85282
thorax -3.94873 0.18832 0.163204
lowerneck -11.9581 -0.88783 -0.23088
upperneck 15.9318 -2.19578 5.70804
head 6.91048 -0.576612 1.67378
rclavicle -1.01132e-014 -1.17283e-014
rhumerus -46.8097 -3.17791 -85.7871
rradius 40.4902
rwrist 15.6548
rhand -5.32617 -28.0858
rfingers 7.12502
rthumb 20.48 -57.0257
lclavicle -1.01132e-014 -1.17283e-014
lhumerus -42.0325 9.45342 86.3983
lradius 34.7548
lwrist -8.60972
lhand -3.52246 -23.8827
lfingers 7.12502
lthumb 22.2125 4.86093
rfemur 12.5229 6.22125 19.9341
rtibia 9.54166e-015
rfoot -19.2257 -11.1889
rtoes -8.05467
lfemur -1.19747 -2.81352 -9.43484
ltibia 24.7406
lfoot -23.0043 11.2501
ltoes -56.999
902
root -1.07386 18.5769 6.15408 -2.27297 -4.2381 -4.19727
lowerback 7.68801 0.0917879 3.00643
upperback 0.371996 0.458109 1.83143
thorax -3.92011 0.188297 0.157114
lowerneck -11.8952 -0.890921 -0.127816
upperneck 15.9544 -2.21005 5.65084
head 6.9057 -0.582806 1.63704
rclavicle -7.83957e-015 4.67144e-015
rhumerus -46.966 -3.52371 -85.4013
rradius 39.9872
rwrist 16.5525
rhand -7.83785 -26.8217
rfingers 7.12502
rthumb 18.0649 -56.0028
lclavicle -7.83957e-015 4.67144e-015
lhumerus -42.5391 10.0785 85.6894
lradius 34.4818
lwrist -9.31325
lhand -3.3886 -23.7642
lfingers 7.12502
lthumb 22.341 4.96417
rfemur 12.4666 6.2612 19.9141
rtibia -1.27222e-014
rfoot -19.2523 -11.1823
rtoes -7.78362
lfemur -1.23627 -2.84048 -9.45635
ltibia 24.7442
lfoot -23.0233 11.3124
ltoes -57.0189
903
root -1.07072 18.5785 6.14862 -2.25062 -4.27966 -4.23254
lowerback 7.66464 0.0972511 3.02691
upperback 0.35633 0.467068 1.84236
thorax -3.92307 0.192326 0.15606
lowerneck -11.866 -0.923767 -0.137686
upperneck 16.0136 -2.25586 5.64955
head 6.92117 -0.604824 1.63434
rclavicle -1.75862e-014 -8.94531e-015
rhumerus -47.108 -3.87222 -84.9344
rradius 39.558
rwrist 17.4078
rhand -7.33064 -27.0353
rfingers 7.12502
rthumb 18.5528 -56.1706
lclavicle -1.75862e-014 -8.94531e-015
lhumerus -43.0011 10.5021 85.1535
lradius 34.3545
lwrist -9.67524
lhand -3.3089 -23.6942
lfingers 7.12502
lthumb 22.4175 5.02491
rfemur 12.4236 6.30212 19.943
rtibia 4.77083e-014
rfoot -19.2742 -11.1781
rtoes -7.60223
lfemur -1.26191 -2.82415 -9.42502
ltibia 24.7363
lfoot -23.0312 11.3757
ltoes -57.0346
904
root -1.0669 18.5793 6.14247 -2.25301 -4.32401 -4.26783
lowerback 7.67511 0.105281 3.07087
upperback 0.349247 0.483099 1.86231
thorax -3.93586 0.199449 0.15033
lowerneck -11.8167 -0.959937 -0.227947
upperneck 16.0206 -2.29315 5.67962
head 6.91701 -0.626303 1.65561
rclavicle -4.68697e-015 3.34952e-014
rhumerus -47.2648 -4.1041 -84.482
rradius 39.284
rwrist 18.0291
rhand -7.03821 -27.0179
rfingers 7.12502
rthumb 18.8341 -56.126
lclavicle -4.68697e-015 3.34952e-014
lhumerus -43.4228 10.7379 84.7836
lradius 34.3933
lwrist -9.7113
lhand -3.28669 -23.6478
lfingers 7.12502
lthumb 22.4388 5.06875
rfemur 12.4026 6.34595 19.9742
rtibia -1.74931e-014
rfoot -19.2129 -11.2043
rtoes -7.78287
lfemur -1.26555 -2.80205 -9.39834
ltibia 24.7291
lfoot -23.0426 11.4599
ltoes -57.0644
905
root -1.0636 18.58 6.13572 -2.28317 -4.34845 -4.26855
lowerback 7.70276 0.116909 3.08738
upperback 0.348454 0.501032 1.85518
thorax -3.95165 0.207791 0.131661
lowerneck -11.7549 -0.986303 -0.318886
upperneck 16.0205 -2.32328 5.7482
head 6.9087 -0.641405 1.69013
rclavicle 1.51573e-014 -6.95746e-015
rhumerus -47.4045 -4.2583 -84.1194
rradius 39.1094
rwrist 18.4077
rhand -7.32419 -26.4898
rfingers 7.12502
rthumb 18.559 -55.6244
lclavicle 1.51573e-014 -6.95746e-015
lhumerus -43.7516 10.7855 84.4985
lradius 34.4937
lwrist -9.66675
lhand -3.12195 -23.5926
lfingers 7.12502
lthumb 22.5969 5.10479
rfemur 12.4066 6.37186 19.9691
rtibia 2.54444e-014
rfoot -19.1502 -11.2271
rtoes -7.91212
lfemur -1.24755 -2.84312 -9.4174
ltibia 24.7248
lfoot -23.0747 11.522
ltoes -57.0167
906
root -1.06144 18.5807 6.12853 -2.31863 -4.37536 -4.28535
lowerback 7.73079 0.13823 3.08844
upperback 0.357125 0.530349 1.85159
thorax -3.95773 0.222257 0.124035
lowerneck -11.6935 -1.01372 -0.374915
upperneck 16.0107 -2.36176 5.82056
head 6.89751 -0.658274 1.71925
rclavicle -1.50455e-014 8.44835e-015
rhumerus -47.5127 -4.37818 -83.812
rradius 39.0427
rwrist 18.5679
rhand -7.50994 -26.2476
rfingers 7.12502
rthumb 18.3803 -55.3993
lclavicle -1.50455e-014 8.44835e-015
lhumerus -43.9932 10.5899 84.3555
lradius 34.6824
lwrist -9.49511
lhand -2.90578 -23.6093
lfingers 7.12502
lthumb 22.8044 5.06269
rfemur 12.4196 6.39927 19.983
rtibia -2.8625e-014
rfoot -19.155 -11.2
rtoes -7.62612
lfemur -1.21399 -2.89858 -9.4197
ltibia 24.7144
lfoot -23.0928 11.5806
ltoes -56.9953
907
root -1.05892 18.581 6.12117 -2.34182 -4.40178 -4.27386
lowerback 7.74367 0.157246 3.05227
upperback 0.381635 0.55254 1.85955
thorax -3.93942 0.234339 0.150055
lowerneck -11.6511 -1.03636 -0.420639
upperneck 15.9743 -2.38447 5.83762
head 6.87971 -0.671945 1.73003
rclavicle -1.63376e-015 1.78906e-015
rhumerus -47.561 -4.42878 -83.5187
rradius 39.0651
rwrist 18.5299
rhand -7.66287 -26.5911
rfingers 7.12502
rthumb 18.2332 -55.7565
lclavicle -1.63376e-015 1.78906e-015
lhumerus -44.1144 10.4237 84.2822
lradius 34.877
lwrist -9.33422
lhand -2.8311 -23.6273
lfingers 7.12502
lthumb 22.8761 5.03589
rfemur 12.4152 6.42836 19.9608
rtibia 2.06736e-014
rfoot -19.1665 -11.1771
rtoes -7.50381
lfemur -1.19389 -2.94 -9.4544
ltibia 24.6982
lfoot -23.0806 11.6579
ltoes -57.0379
908
root -1.05533 18.5815 6.11321 -2.34736 -4.39766 -4.22373
lowerback 7.74247 0.168267 2.99135
upperback 0.398023 0.561324 1.86142
thorax -3.9221 0.2401 0.185175
lowerneck -11.6276 -1.0437 -0.433517
upperneck 15.954 -2.38229 5.79168
head 6.86839 -0.676416 1.7174
rclavicle 6.02255e-015 -1.0635e-014
rhumerus -47.5845 -4.46078 -83.2309
rradius 39.1153
rwrist 18.4549
rhand -7.73263 -26.8782
rfingers 7.12502
rthumb 18.1661 -56.0499
lclavicle 6.02255e-015 -1.0635e-014
lhumerus -44.1772 10.2122 84.2854
lradius 35.1248
lwrist -9.13771
lhand -2.79553 -23.5018
lfingers 7.12502
lthumb 22.9102 5.1571
rfemur 12.3854 6.42964 19.8893
rtibia -4.29375e-014
rfoot -19.1383 -11.2174
rtoes -8.05699
lfemur -1.21124 -2.99229 -9.53283
ltibia 24.6781
lfoot -23.0664 11.7068
ltoes -57.0508
